<svg width="225" height="115" viewBox="0 0 225 115" fill="none" xmlns="http://www.w3.org/2000/svg">
<path d="M151.855 83.0125C149.892 83.0125 148.334 82.6605 147.182 81.9565C146.052 81.2315 145.252 80.2285 144.782 78.9485C144.313 77.6465 144.078 76.1215 144.078 74.3725V65.0275C144.078 63.2355 144.313 61.6995 144.782 60.4195C145.252 59.1185 146.052 58.1155 147.182 57.4115C148.334 56.7075 149.892 56.3555 151.855 56.3555C153.775 56.3555 155.268 56.6755 156.335 57.3155C157.423 57.9335 158.191 58.8085 158.639 59.9395C159.087 61.0705 159.311 62.3715 159.311 63.8435V66.0835H153.711V63.4915C153.711 62.9795 153.679 62.4885 153.615 62.0195C153.572 61.5505 153.423 61.1665 153.167 60.8675C152.911 60.5475 152.473 60.3875 151.855 60.3875C151.257 60.3875 150.809 60.5475 150.511 60.8675C150.233 61.1875 150.052 61.5925 149.967 62.0835C149.902 62.5525 149.87 63.0545 149.87 63.5875V75.7805C149.87 76.3565 149.913 76.8895 149.999 77.3805C150.105 77.8495 150.297 78.2335 150.575 78.5325C150.873 78.8095 151.3 78.9485 151.855 78.9485C152.452 78.9485 152.879 78.7985 153.135 78.5005C153.391 78.1805 153.551 77.7745 153.615 77.2845C153.679 76.7935 153.711 76.2925 153.711 75.7805V73.0595H159.311V75.3005C159.311 76.7725 159.087 78.0945 158.639 79.2685C158.212 80.4205 157.455 81.3375 156.367 82.0205C155.3 82.6815 153.796 83.0125 151.855 83.0125ZM162.462 82.6285V56.7075H168.191V78.7565H174.143V82.6285H162.462ZM176.682 82.6285V56.7075H182.411V82.6285H176.682ZM186.18 82.6285L186.628 56.7075H192.772L195.62 71.7795L198.692 56.7075H204.613L205.061 82.6285H200.996L200.516 65.3795L197.508 82.6285H193.892L190.692 65.2515L190.308 82.6285H186.18ZM208.808 82.6285V56.7075H215.56C216.67 56.7075 217.715 56.7925 218.697 56.9635C219.699 57.1335 220.585 57.4645 221.353 57.9555C222.121 58.4245 222.718 59.1075 223.145 60.0035C223.593 60.8785 223.817 62.0405 223.817 63.4915C223.817 64.5365 223.657 65.4225 223.337 66.1475C223.038 66.8515 222.601 67.4175 222.025 67.8435C221.47 68.2705 220.798 68.5585 220.009 68.7075C221.011 68.8355 221.854 69.1665 222.537 69.6995C223.219 70.2115 223.731 70.9055 224.073 71.7795C224.435 72.6545 224.617 73.7105 224.617 74.9485C224.617 76.2925 224.435 77.4545 224.073 78.4365C223.731 79.3965 223.23 80.1855 222.569 80.8045C221.907 81.4235 221.086 81.8815 220.105 82.1805C219.145 82.4795 218.035 82.6285 216.776 82.6285H208.808ZM214.536 78.6285H215.752C217.011 78.6285 217.875 78.3085 218.345 77.6685C218.835 77.0285 219.081 76.0895 219.081 74.8525C219.081 73.8705 218.974 73.0915 218.761 72.5155C218.547 71.9395 218.195 71.5235 217.704 71.2675C217.214 70.9905 216.552 70.8515 215.72 70.8515H214.536V78.6285ZM214.536 67.0755H215.656C216.531 67.0755 217.192 66.9475 217.64 66.6915C218.088 66.4145 218.387 66.0195 218.537 65.5075C218.707 64.9955 218.793 64.3765 218.793 63.6515C218.793 62.9685 218.665 62.4035 218.409 61.9555C218.174 61.4865 217.811 61.1345 217.32 60.8995C216.851 60.6645 216.254 60.5475 215.528 60.5475H214.536V67.0755Z" fill="#414F6B"/>
<path d="M30.2953 114.034C23.6945 114.034 18.1787 112.722 13.748 110.1C9.3173 107.387 5.9717 103.68 3.7112 98.9776C1.45059 94.2756 0.320312 88.8056 0.320312 82.5666V32.7886C0.320312 26.3686 1.36017 20.7624 3.4399 15.97C5.61 11.0872 8.9104 7.28951 13.3411 4.57681C17.7718 1.86411 23.4232 0.507812 30.2953 0.507812C37.1674 0.507812 42.7736 1.86411 47.1139 4.57681C51.5446 7.28951 54.7998 11.0872 56.8795 15.97C59.0496 20.7624 60.1347 26.3686 60.1347 32.7886V82.5666C60.1347 88.7146 59.0044 94.1856 56.7439 98.9776C54.4833 103.68 51.1377 107.387 46.707 110.1C42.2763 112.722 36.8057 114.034 30.2953 114.034ZM30.2953 93.8236C32.4655 93.8236 34.0026 93.1456 34.9069 91.7896C35.9015 90.3426 36.4893 88.7146 36.6701 86.9066C36.9414 85.0076 37.077 83.3796 37.077 82.0236V33.3311C37.077 31.794 36.9866 30.0759 36.8057 28.1771C36.6249 26.1878 36.0372 24.4697 35.0425 23.023C34.1383 21.4858 32.5559 20.7172 30.2953 20.7172C28.0348 20.7172 26.4072 21.4858 25.4125 23.023C24.5083 24.4697 23.9658 26.1878 23.7849 28.1771C23.6041 30.0759 23.5137 31.794 23.5137 33.3311V82.0236C23.5137 83.3796 23.6493 85.0076 23.9206 86.9066C24.1918 88.7146 24.7796 90.3426 25.6838 91.7896C26.6784 93.1456 28.2156 93.8236 30.2953 93.8236ZM73.129 111.999V95.9936L99.4421 55.5746C101.431 52.5906 103.285 49.6976 105.003 46.8945C106.811 44.0914 108.258 41.2431 109.343 38.3496C110.519 35.4561 111.106 32.4269 111.106 29.2621C111.106 26.0973 110.473 23.7464 109.207 22.2092C107.942 20.672 106.224 19.9034 104.053 19.9034C101.612 19.9034 99.7131 20.5816 98.3571 21.9379C97.0001 23.2942 96.0511 25.1027 95.5081 27.3633C95.0561 29.6238 94.8301 32.1556 94.8301 34.9587V40.3841H72.8578V34.5518C72.8578 28.0414 73.8976 22.2544 75.9773 17.1907C78.0571 12.0367 81.3575 8.01291 85.8786 5.11931C90.3997 2.13541 96.3221 0.64341 103.646 0.64341C113.503 0.64341 120.917 3.22051 125.89 8.37461C130.954 13.4382 133.486 20.5364 133.486 29.669C133.486 34.0997 132.763 38.2139 131.316 42.0117C129.959 45.8094 128.106 49.5167 125.755 53.1336C123.494 56.6606 121.053 60.3676 118.431 64.2556L98.3571 94.2306H130.502V111.999H73.129ZM143.478 111.999V91.1106H164.366V111.999H143.478Z" fill="#414F6B" fill-opacity="0.6"/>
</svg>
